<svg id="Layer_1" data-name="Layer 1" xmlns="http://www.w3.org/2000/svg" xmlns:xlink="http://www.w3.org/1999/xlink" width="1280" height="400" viewBox="0 0 1280 400"><defs><style>.cls-1{fill:url(#linear-gradient);}.cls-2,.cls-3,.cls-4{fill:none;stroke:#d20601;stroke-linecap:round;stroke-miterlimit:10;}.cls-2{stroke-width:7px;}.cls-3{stroke-width:4px;}.cls-4{stroke-width:5px;}.cls-5{fill:#d20601;}.cls-6{fill:#820303;}.cls-7{fill:#a59cb2;}</style><linearGradient id="linear-gradient" x1="653.6" y1="508.87" x2="653.6" y2="-98" gradientUnits="userSpaceOnUse"><stop offset="0.65" stop-color="#d1a49a"/><stop offset="1" stop-color="#b9a5a8"/></linearGradient></defs><title>goldengate_horizontal-01</title><rect class="cls-1" x="-7.84" y="-98" width="1322.88" height="606.87"/><path class="cls-2" d="M697,38.17S152.9,367.11,33.5,367.11"/><path class="cls-2" d="M90.5,367.11C209.9,367.11,754,38.17,754,38.17"/><line class="cls-3" x1="546" y1="158" x2="546" y2="318"/><line class="cls-3" x1="525" y1="140" x2="525" y2="300"/><line class="cls-3" x1="513" y1="183" x2="513" y2="343"/><line class="cls-3" x1="491" y1="162" x2="491" y2="322"/><line class="cls-3" x1="479" y1="195" x2="479" y2="355"/><line class="cls-3" x1="456" y1="181" x2="456" y2="341"/><line class="cls-3" x1="442" y1="218" x2="442" y2="378"/><line class="cls-3" x1="420" y1="199" x2="420" y2="359"/><line class="cls-3" x1="406" y1="236" x2="406" y2="396"/><line class="cls-3" x1="384" y1="218" x2="384" y2="378"/><line class="cls-3" x1="369" y1="257" x2="369" y2="417"/><line class="cls-3" x1="347" y1="239" x2="347" y2="399"/><line class="cls-3" x1="332" y1="275" x2="332" y2="435"/><line class="cls-3" x1="311" y1="259" x2="311" y2="419"/><line class="cls-3" x1="295" y1="292" x2="295" y2="452"/><line class="cls-3" x1="274" y1="275" x2="274" y2="435"/><line class="cls-3" x1="259" y1="308" x2="259" y2="468"/><line class="cls-3" x1="236" y1="292" x2="236" y2="452"/><line class="cls-3" x1="560" y1="158" x2="560" y2="318"/><line class="cls-3" x1="560" y1="119" x2="560" y2="279"/><line class="cls-3" x1="585" y1="140" x2="585" y2="300"/><line class="cls-3" x1="594" y1="134" x2="594" y2="294"/><line class="cls-3" x1="594" y1="101" x2="594" y2="261"/><line class="cls-3" x1="620" y1="122" x2="620" y2="282"/><line class="cls-3" x1="629" y1="122" x2="629" y2="282"/><line class="cls-3" x1="629" y1="80" x2="629" y2="240"/><line class="cls-3" x1="653" y1="103" x2="653" y2="263"/><line class="cls-3" x1="663" y1="96" x2="663" y2="256"/><line class="cls-3" x1="663" y1="60" x2="663" y2="220"/><line class="cls-4" x1="791.5" y1="68" x2="791.5" y2="287"/><line class="cls-4" x1="798.5" y1="114" x2="798.5" y2="333"/><line class="cls-4" x1="825.5" y1="93" x2="825.5" y2="312"/><line class="cls-4" x1="831.5" y1="140" x2="831.5" y2="359"/><line class="cls-4" x1="857.5" y1="118" x2="857.5" y2="337"/><line class="cls-4" x1="864.5" y1="164" x2="864.5" y2="383"/><line class="cls-4" x1="889.5" y1="143" x2="889.5" y2="362"/><line class="cls-4" x1="895.5" y1="188" x2="895.5" y2="407"/><line class="cls-4" x1="922.5" y1="166" x2="922.5" y2="385"/><line class="cls-4" x1="953.5" y1="189" x2="953.5" y2="408"/><path class="cls-2" d="M758.51,38.17S1060.77,282,1118.44,282"/><path class="cls-2" d="M731.51,61.17S1033.77,305,1091.44,305"/><rect class="cls-5" x="750.16" y="143" width="22.2" height="92.29"/><rect class="cls-5" x="751.88" y="46.79" width="17.39" height="97.85"/><rect class="cls-5" x="749.1" y="40.66" width="14.66" height="9.67"/><rect class="cls-6" x="743.44" y="143" width="6.72" height="101.52"/><rect class="cls-6" x="745.88" y="45.5" width="8.12" height="99.13"/><rect class="cls-5" x="686.35" y="45.5" width="22.92" height="94.5"/><rect class="cls-5" x="684.31" y="140" width="24.96" height="104.52"/><rect class="cls-5" x="704.94" y="173.98" width="6.62" height="66.02"/><rect class="cls-5" x="704.94" y="51.49" width="44.16" height="26.99"/><polygon class="cls-5" points="688.42 49.55 695 36.4 695 32 698 32 698.45 27.65 698.99 32 701 32 701 39 716.17 51.49 688.42 49.55"/><polygon class="cls-5" points="766.38 48.55 760 35.4 760 31 756.59 31 756.14 26.65 755.6 31 754 31 754 38 738.73 50.49 766.38 48.55"/><rect class="cls-5" x="705.9" y="50.34" width="44.04" height="11.82"/><rect class="cls-5" x="738.13" y="47.69" width="12.81" height="8.01"/><path class="cls-6" d="M709.45,137.3s2.12,7.28,14.47,7.28S748,140,748,140v41s-5.63-8.49-21.9-8.49-17.13,6-17.13,6l-5.63-13"/><circle class="cls-7" cx="437.29" cy="369.35" r="27.53"/><circle class="cls-7" cx="520.71" cy="369.35" r="27.53"/><circle class="cls-7" cx="490.24" cy="355" r="41.88"/><rect class="cls-7" x="437.29" y="376.94" width="83.42" height="19.95"/><circle class="cls-7" cx="342.29" cy="410.35" r="27.53"/><circle class="cls-7" cx="425.71" cy="410.35" r="27.53"/><circle class="cls-7" cx="395.24" cy="396" r="41.88"/><circle class="cls-7" cx="334.12" cy="437.88" r="41.88"/><circle class="cls-7" cx="479" cy="411.24" r="27.53"/><circle class="cls-7" cx="562.42" cy="411.24" r="27.53"/><circle class="cls-7" cx="531.95" cy="396.88" r="41.88"/><circle class="cls-7" cx="579.53" cy="326.35" r="27.53"/><circle class="cls-7" cx="662.95" cy="326.35" r="27.53"/><circle class="cls-7" cx="632.48" cy="312" r="41.88"/><rect class="cls-7" x="579.53" y="333.94" width="83.42" height="19.95"/><circle class="cls-7" cx="664.55" cy="293.35" r="27.53"/><circle class="cls-7" cx="747.97" cy="293.35" r="27.53"/><circle class="cls-7" cx="717.5" cy="279" r="41.88"/><rect class="cls-7" x="664.55" y="300.94" width="83.42" height="19.95"/><circle class="cls-7" cx="834.29" cy="296.35" r="27.53"/><circle class="cls-7" cx="917.71" cy="296.35" r="27.53"/><circle class="cls-7" cx="887.24" cy="282" r="41.88"/><rect class="cls-7" x="834.29" y="303.94" width="83.42" height="19.95"/><circle class="cls-7" cx="896.77" cy="266.85" r="27.53"/><circle class="cls-7" cx="980.19" cy="266.85" r="27.53"/><circle class="cls-7" cx="949.72" cy="252.5" r="41.88"/><rect class="cls-7" x="896.77" y="274.44" width="83.42" height="19.95"/><circle class="cls-7" cx="927.83" cy="237.85" r="27.53"/><circle class="cls-7" cx="1011.25" cy="237.85" r="27.53"/><circle class="cls-7" cx="980.78" cy="223.5" r="41.88"/><rect class="cls-7" x="927.83" y="245.44" width="83.42" height="19.95"/><circle class="cls-7" cx="958.12" cy="293.35" r="27.53"/><circle class="cls-7" cx="1041.54" cy="293.35" r="27.53"/><circle class="cls-7" cx="1011.07" cy="279" r="41.88"/><rect class="cls-7" x="958.12" y="300.94" width="83.42" height="19.95"/><circle class="cls-7" cx="1001.47" cy="281.21" r="27.53"/><circle class="cls-7" cx="1084.88" cy="281.21" r="27.53"/><circle class="cls-7" cx="1054.42" cy="266.85" r="41.88"/><rect class="cls-7" x="1001.47" y="288.79" width="83.42" height="19.95"/><circle class="cls-7" cx="1040.41" cy="298.29" r="27.53"/><circle class="cls-7" cx="1123.83" cy="298.29" r="27.53"/><circle class="cls-7" cx="1093.36" cy="283.94" r="41.88"/><rect class="cls-7" x="1040.41" y="305.88" width="83.42" height="19.95"/><circle class="cls-7" cx="1078.99" cy="303.14" r="27.53"/><circle class="cls-7" cx="1162.4" cy="303.14" r="27.53"/><circle class="cls-7" cx="1131.93" cy="288.79" r="41.88"/><rect class="cls-7" x="1078.99" y="310.73" width="83.42" height="19.95"/><circle class="cls-7" cx="1098.47" cy="284.47" r="27.53"/><circle class="cls-7" cx="1181.88" cy="284.47" r="27.53"/><circle class="cls-7" cx="1151.42" cy="270.12" r="41.88"/><rect class="cls-7" x="1098.47" y="292.05" width="83.42" height="19.95"/><circle class="cls-7" cx="1156.49" cy="287.85" r="27.53"/><circle class="cls-7" cx="1239.9" cy="287.85" r="27.53"/><circle class="cls-7" cx="1209.43" cy="273.5" r="41.88"/><rect class="cls-7" x="1156.49" y="295.44" width="83.42" height="19.95"/><circle class="cls-7" cx="1190.9" cy="317.5" r="27.53"/><circle class="cls-7" cx="1274.32" cy="317.5" r="27.53"/><circle class="cls-7" cx="1243.85" cy="303.14" r="41.88"/><rect class="cls-7" x="1190.9" y="325.08" width="83.42" height="19.95"/><circle class="cls-7" cx="1190.9" cy="411.24" r="27.53"/><circle class="cls-7" cx="1274.32" cy="411.24" r="27.53"/><circle class="cls-7" cx="1243.85" cy="396.88" r="41.88"/><circle class="cls-7" cx="1202.14" cy="371.65" r="27.53"/><circle class="cls-7" cx="1285.56" cy="371.65" r="27.53"/><circle class="cls-7" cx="1255.09" cy="357.29" r="41.88"/><rect class="cls-7" x="1202.14" y="379.23" width="83.42" height="19.95"/><circle class="cls-7" cx="1089.05" cy="368.88" r="27.53"/><circle class="cls-7" cx="1172.47" cy="368.88" r="27.53"/><circle class="cls-7" cx="1142" cy="354.53" r="41.88"/><rect class="cls-7" x="1089.05" y="376.47" width="83.42" height="19.95"/><circle class="cls-7" cx="1130.29" cy="423.7" r="41.88"/><circle class="cls-7" cx="1035.64" cy="375.29" r="27.53"/><circle class="cls-7" cx="1119.05" cy="375.29" r="27.53"/><circle class="cls-7" cx="1088.58" cy="360.94" r="41.88"/><rect class="cls-7" x="1035.64" y="382.88" width="83.42" height="19.95"/><circle class="cls-7" cx="987.29" cy="380.34" r="27.53"/><circle class="cls-7" cx="1070.71" cy="380.34" r="27.53"/><circle class="cls-7" cx="1040.24" cy="365.99" r="41.88"/><rect class="cls-7" x="987.29" y="387.93" width="83.42" height="19.95"/><circle class="cls-7" cx="1046.87" cy="413.68" r="41.88"/><circle class="cls-7" cx="1198.53" cy="263.85" r="27.53"/><circle class="cls-7" cx="1281.95" cy="263.85" r="27.53"/><circle class="cls-7" cx="1251.48" cy="249.5" r="41.88"/><rect class="cls-7" x="1198.53" y="271.44" width="83.42" height="19.95"/><circle class="cls-7" cx="958.12" cy="340.17" r="27.53"/><circle class="cls-7" cx="1041.54" cy="340.17" r="27.53"/><circle class="cls-7" cx="1011.07" cy="325.82" r="41.88"/><rect class="cls-7" x="958.12" y="347.76" width="83.42" height="19.95"/><circle class="cls-7" cx="930.59" cy="340.17" r="27.53"/><circle class="cls-7" cx="1014.01" cy="340.17" r="27.53"/><circle class="cls-7" cx="983.54" cy="325.82" r="41.88"/><rect class="cls-7" x="930.59" y="347.76" width="83.42" height="19.95"/><circle class="cls-7" cx="956.82" cy="400.29" r="27.53"/><circle class="cls-7" cx="1040.24" cy="400.29" r="27.53"/><circle class="cls-7" cx="1009.77" cy="385.93" r="41.88"/><circle class="cls-7" cx="834.29" cy="369.35" r="27.53"/><circle class="cls-7" cx="917.71" cy="369.35" r="27.53"/><circle class="cls-7" cx="887.24" cy="355" r="41.88"/><rect class="cls-7" x="834.29" y="376.94" width="83.42" height="19.95"/><circle class="cls-7" cx="860.53" cy="368.24" r="27.53"/><circle class="cls-7" cx="943.95" cy="368.24" r="27.53"/><circle class="cls-7" cx="913.48" cy="353.88" r="41.88"/><rect class="cls-7" x="860.53" y="375.82" width="83.42" height="19.95"/><circle class="cls-7" cx="780.44" cy="301.35" r="27.53"/><circle class="cls-7" cx="863.85" cy="301.35" r="27.53"/><circle class="cls-7" cx="833.38" cy="287" r="41.88"/><rect class="cls-7" x="780.44" y="308.94" width="83.42" height="19.95"/><circle class="cls-7" cx="710.84" cy="266.85" r="27.53"/><circle class="cls-7" cx="794.26" cy="266.85" r="27.53"/><circle class="cls-7" cx="763.79" cy="252.5" r="41.88"/><rect class="cls-7" x="710.84" y="274.44" width="83.42" height="19.95"/><circle class="cls-7" cx="469.12" cy="327.53" r="27.53"/><circle class="cls-7" cx="552.53" cy="327.53" r="27.53"/><circle class="cls-7" cx="522.06" cy="313.18" r="41.88"/><rect class="cls-7" x="469.12" y="335.12" width="83.42" height="19.95"/><circle class="cls-7" cx="516.3" cy="315.29" r="27.53"/><circle class="cls-7" cx="599.72" cy="315.29" r="27.53"/><circle class="cls-7" cx="569.25" cy="300.94" r="41.88"/><rect class="cls-7" x="516.3" y="322.88" width="83.42" height="19.95"/><circle class="cls-7" cx="548.89" cy="391.29" r="27.53"/><circle class="cls-7" cx="632.3" cy="391.29" r="27.53"/><circle class="cls-7" cx="601.83" cy="376.94" r="41.88"/><rect class="cls-7" x="548.89" y="398.88" width="83.42" height="19.95"/><circle class="cls-7" cx="608.19" cy="413.68" r="42.94"/><circle class="cls-7" cx="738.29" cy="413.68" r="42.94"/><circle class="cls-7" cx="690.77" cy="391.29" r="65.33"/><circle class="cls-7" cx="687.85" cy="371.79" r="42.94"/><circle class="cls-7" cx="817.96" cy="371.79" r="42.94"/><circle class="cls-7" cx="770.44" cy="349.41" r="65.33"/><rect class="cls-7" x="687.85" y="383.62" width="130.1" height="31.11"/><circle class="cls-7" cx="426.52" cy="405.64" r="27.53"/><circle class="cls-7" cx="509.94" cy="405.64" r="27.53"/><circle class="cls-7" cx="479.47" cy="391.29" r="41.88"/><circle class="cls-7" cx="368.05" cy="362.11" r="27.53"/><circle class="cls-7" cx="451.47" cy="362.11" r="27.53"/><circle class="cls-7" cx="421" cy="347.76" r="41.88"/><rect class="cls-7" x="368.05" y="369.7" width="83.42" height="19.95"/><circle class="cls-7" cx="273.05" cy="390.18" r="27.53"/><circle class="cls-7" cx="356.47" cy="390.18" r="27.53"/><circle class="cls-7" cx="326" cy="375.82" r="41.88"/><rect class="cls-7" x="273.05" y="397.76" width="83.42" height="19.95"/><circle class="cls-7" cx="211.93" cy="382.06" r="27.53"/><circle class="cls-7" cx="295.35" cy="382.06" r="27.53"/><circle class="cls-7" cx="264.88" cy="367.71" r="41.88"/><rect class="cls-7" x="211.93" y="389.64" width="83.42" height="19.95"/><circle class="cls-7" cx="181.29" cy="345.03" r="27.53"/><circle class="cls-7" cx="264.7" cy="345.03" r="27.53"/><circle class="cls-7" cx="234.23" cy="330.68" r="41.88"/><rect class="cls-7" x="181.29" y="352.61" width="83.42" height="19.95"/><circle class="cls-7" cx="91.55" cy="323.09" r="27.53"/><circle class="cls-7" cx="174.97" cy="323.09" r="27.53"/><circle class="cls-7" cx="144.5" cy="308.74" r="41.88"/><rect class="cls-7" x="91.55" y="330.68" width="83.42" height="19.95"/><circle class="cls-7" cx="66.05" cy="383.71" r="27.53"/><circle class="cls-7" cx="149.47" cy="383.71" r="27.53"/><circle class="cls-7" cx="119" cy="369.35" r="41.88"/><rect class="cls-7" x="66.05" y="391.29" width="83.42" height="19.95"/><circle class="cls-7" cx="8.72" cy="358.26" r="27.53"/><circle class="cls-7" cx="92.13" cy="358.26" r="27.53"/><circle class="cls-7" cx="61.67" cy="343.91" r="41.88"/><rect class="cls-7" x="8.72" y="365.85" width="83.42" height="19.95"/><circle class="cls-7" cx="2.57" cy="325.08" r="27.53"/><circle class="cls-7" cx="85.99" cy="325.08" r="27.53"/><circle class="cls-7" cx="55.52" cy="310.73" r="41.88"/><rect class="cls-7" x="2.57" y="332.67" width="83.42" height="19.95"/><circle class="cls-7" cx="-21.1" cy="309.79" r="27.53"/><circle class="cls-7" cx="62.31" cy="309.79" r="27.53"/><circle class="cls-7" cx="31.84" cy="295.44" r="41.88"/><rect class="cls-7" x="-21.1" y="317.38" width="83.42" height="19.95"/><circle class="cls-7" cx="35.12" cy="330.35" r="27.53"/><circle class="cls-7" cx="118.53" cy="330.35" r="27.53"/><circle class="cls-7" cx="88.06" cy="316" r="41.88"/><rect class="cls-7" x="35.12" y="337.94" width="83.42" height="19.95"/><circle class="cls-7" cx="3.04" cy="392.47" r="27.53"/><circle class="cls-7" cx="86.46" cy="392.47" r="27.53"/><circle class="cls-7" cx="55.99" cy="378.11" r="41.88"/><circle class="cls-7" cx="103.84" cy="395.24" r="27.53"/><circle class="cls-7" cx="187.26" cy="395.24" r="27.53"/><circle class="cls-7" cx="156.79" cy="380.88" r="41.88"/><circle class="cls-7" cx="121.21" cy="329.76" r="27.53"/><circle class="cls-7" cx="204.63" cy="329.76" r="27.53"/><circle class="cls-7" cx="174.16" cy="315.41" r="41.88"/><rect class="cls-7" x="121.21" y="337.35" width="83.42" height="19.95"/><circle class="cls-7" cx="-21.93" cy="295.56" r="27.53"/><circle class="cls-7" cx="61.49" cy="295.56" r="27.53"/><circle class="cls-7" cx="31.02" cy="281.21" r="41.88"/><rect class="cls-7" x="-21.93" y="303.14" width="83.42" height="19.95"/><circle class="cls-7" cx="7.6" cy="296.35" r="27.53"/><circle class="cls-7" cx="91.01" cy="296.35" r="27.53"/><circle class="cls-7" cx="60.54" cy="282" r="41.88"/><rect class="cls-7" x="7.6" y="303.94" width="83.42" height="19.95"/><circle class="cls-7" cx="197.76" cy="411.24" r="27.53"/><circle class="cls-7" cx="281.17" cy="411.24" r="27.53"/><circle class="cls-7" cx="250.7" cy="396.88" r="41.88"/><circle class="cls-7" cx="236.53" cy="420" r="41.88"/><circle class="cls-7" cx="763.97" cy="343.24" r="27.53"/><circle class="cls-7" cx="847.38" cy="343.24" r="27.53"/><circle class="cls-7" cx="816.91" cy="328.88" r="41.88"/><rect class="cls-7" x="763.97" y="350.82" width="83.42" height="19.95"/><circle class="cls-7" cx="860.53" cy="413.53" r="27.53"/><circle class="cls-7" cx="943.95" cy="413.53" r="27.53"/><circle class="cls-7" cx="913.48" cy="399.18" r="41.88"/><circle class="cls-7" cx="896.77" cy="423.2" r="27.53"/><circle class="cls-7" cx="980.19" cy="423.2" r="27.53"/><circle class="cls-7" cx="949.72" cy="408.85" r="41.88"/><circle class="cls-7" cx="987.06" cy="436.87" r="41.88"/><circle class="cls-7" cx="927.65" cy="437.88" r="41.88"/><circle class="cls-7" cx="532.12" cy="340.17" r="27.53"/><circle class="cls-7" cx="615.54" cy="340.17" r="27.53"/><circle class="cls-7" cx="585.07" cy="325.82" r="41.88"/><rect class="cls-7" x="532.12" y="347.76" width="83.42" height="19.95"/><circle class="cls-7" cx="655.29" cy="353.35" r="27.53"/><circle class="cls-7" cx="738.71" cy="353.35" r="27.53"/><circle class="cls-7" cx="708.24" cy="339" r="41.88"/><rect class="cls-7" x="655.29" y="360.94" width="83.42" height="19.95"/><circle class="cls-7" cx="509.94" cy="433.18" r="41.88"/><rect class="cls-6" x="704.6" y="163.24" width="6.72" height="101.52"/><rect class="cls-6" x="703.34" y="75.98" width="5.92" height="101.52"/><circle class="cls-7" cx="674.46" cy="266.85" r="27.53"/><circle class="cls-7" cx="757.88" cy="266.85" r="27.53"/><circle class="cls-7" cx="727.41" cy="252.5" r="41.88"/><rect class="cls-7" x="674.46" y="274.44" width="83.42" height="19.95"/><path class="cls-6" d="M709.45,137.3s1.33,4.58,8,6.48a23.6,23.6,0,0,0,6.43.81C736.28,144.58,748,140,748,140v41s-5.63-8.49-21.9-8.49c-1.53,0-2.92.05-4.19,0.15-12.24.92-12.94,5.85-12.94,5.85l-5.63-13Z"/><path class="cls-5" d="M705.69,44.83s1.53,4.7,8.45,6.88a25,25,0,0,0,6.59,1.07,73.84,73.84,0,0,0,24.37-3.72l1.58,41.6s-6.07-8.83-22.66-9.46c-1.56-.06-3-0.06-4.27,0-12.44.47-13,5.43-13,5.43l-6.24-13.38Z"/></svg>