<svg width="2392" height="662" viewBox="0 0 2392 662" version="2.0" xmlns="http://www.w3.org/2000/svg" xmlns:xlink="http://www.w3.org/1999/xlink" xmlns:figma="http://www.figma.com/figma/ns">
<title>Group</title>
<desc>Created using Figma 0.90</desc>
<g id="Canvas" transform="translate(1068 -1706)" figma:type="canvas">
<g id="Group" style="mix-blend-mode:normal;" figma:type="group">
<g id="Vector 9" style="mix-blend-mode:normal;" figma:type="vector">
<use xlink:href="#path0_fill" transform="matrix(1 0 0 1 -1110 1994)" fill="#004D40" style="mix-blend-mode:normal;"/>
<use xlink:href="#path1_fill" transform="matrix(1 0 0 1 -1110 1994)" fill="#004D40" style="mix-blend-mode:normal;"/>
</g>
<g id="Vector 8" style="mix-blend-mode:normal;" figma:type="vector">
<use xlink:href="#path2_fill" transform="matrix(1 0 0 1 -631 1707)" fill="#004D40" style="mix-blend-mode:normal;"/>
<use xlink:href="#path3_fill" transform="matrix(1 0 0 1 -631 1707)" fill="#004D40" style="mix-blend-mode:normal;"/>
<use xlink:href="#path4_fill" transform="matrix(1 0 0 1 -631 1707)" fill="#004D40" style="mix-blend-mode:normal;"/>
<use xlink:href="#path5_fill" transform="matrix(1 0 0 1 -631 1707)" fill="#004D40" style="mix-blend-mode:normal;"/>
<use xlink:href="#path6_fill" transform="matrix(1 0 0 1 -631 1707)" fill="#004D40" style="mix-blend-mode:normal;"/>
<use xlink:href="#path7_fill" transform="matrix(1 0 0 1 -631 1707)" fill="#004D40" style="mix-blend-mode:normal;"/>
<use xlink:href="#path8_fill" transform="matrix(1 0 0 1 -631 1707)" fill="#004D40" style="mix-blend-mode:normal;"/>
<use xlink:href="#path9_stroke" transform="matrix(1 0 0 1 -631 1707)" fill="#004D40" style="mix-blend-mode:normal;"/>
</g>
<g id="Rectangle 8" style="mix-blend-mode:normal;" figma:type="rounded-rectangle">
<use xlink:href="#path10_fill" transform="translate(-547 1713)" fill="#004D40" style="mix-blend-mode:normal;"/>
</g>
<g id="Rectangle 9" style="mix-blend-mode:normal;" figma:type="rounded-rectangle">
<use xlink:href="#path11_fill" transform="translate(-1110 2159)" fill="#004D40" style="mix-blend-mode:normal;"/>
</g>
</g>
</g>
<defs>
<path id="path0_fill" fill-rule="evenodd" d="M 2477.78 122.422L 2494 122.422L 2494 210.637L 0 210.637L 0 135.024L 25.2283 135.024L 140.558 135.024L 140.558 122.422L 185.608 122.422L 255.887 122.422L 255.887 135.024L 272.105 135.024L 279.314 142.225L 304.542 142.225L 324.364 122.422L 466.724 122.422L 497.358 122.422L 497.358 115.22L 497.358 116.906L 508.171 116.906L 508.171 117.021L 538.805 117.021L 544.211 122.422L 664.947 122.422L 726.215 122.422L 726.215 115.22L 746.038 115.22L 746.038 127.822L 868.575 127.822L 868.575 111.62L 897.408 111.62L 897.408 106.219L 929.844 106.219L 929.844 115.22L 965.884 115.22L 965.884 133.223L 980.301 133.223L 980.301 118.821L 1037.97 118.821L 1037.97 111.62L 1176.72 111.62L 1180.33 115.22L 1185.73 115.22L 1185.73 108.019L 1203.75 108.019L 1203.75 68.412L 1230.78 68.412L 1230.78 118.821L 1274.03 118.821L 1274.03 91.8162L 1317.28 91.8162L 1317.28 52.2092L 1349.72 52.2092L 1349.72 118.821L 1380.35 118.821L 1414.59 118.821L 1414.59 32.4057L 1434.41 52.2092L 1445.22 41.4073L 1454.74 41.4073L 1470.09 52.2092L 1486.67 46.8082L 1497.48 46.8082L 1497.48 68.412L 1531.72 68.412L 1531.72 81.0143L 1553.34 81.0143L 1553.34 100.818L 1583.98 100.818L 1583.98 46.8082L 1591.19 46.8082L 1591.19 39.607L 1607.4 39.607L 1607.4 30.6054L 1620.56 30.6054L 1620.56 36.0063L 1636.24 55.8098L 1657.86 55.8098L 1657.86 68.412L 1674.08 68.412L 1674.08 100.818L 1701.11 106.219L 1701.11 135.024L 1708.32 135.024L 1708.32 91.8162L 1733.55 91.8162L 1733.55 46.8082L 1785.8 46.8082L 1785.8 32.4057L 1800.22 32.4057L 1800.22 19.8035L 1805.63 19.8035L 1809.23 19.8035L 1809.23 30.6054L 1821.85 30.6054L 1821.85 52.2092L 1829.05 52.2092L 1829.05 41.4073L 1839.87 41.4073L 1839.87 19.8035L 1843.47 19.8035L 1843.47 12.6022L 1847.07 12.6022L 1847.07 9.00158L 1850.68 9.00158L 1850.68 0L 1859.69 0L 1859.69 23.4041L 1866.9 23.4041L 1866.9 16.2029L 1872.3 16.2029L 1872.3 25.2044L 1879.51 25.2044L 1879.51 39.607L 1894.98 39.607L 1894.98 88.3262L 1905.06 88.3262L 1905.06 97.2171L 1914.8 97.2171L 1914.8 36.0063L 1929.97 36.0063L 1949.79 68.412L 1949.79 97.2171L 1955.2 97.2171L 1955.2 142.225L 1967.81 142.225L 1967.81 91.8162L 1998.44 91.8162L 1998.44 122.422L 2005.65 122.422L 2005.65 138.624L 2074.13 138.624L 2074.13 133.223L 2090.35 133.223L 2090.35 122.422L 2117.38 122.422L 2117.38 142.225L 2182.25 142.225L 2229.1 142.225L 2229.1 68.412L 2270.55 68.412L 2270.55 86.4152L 2284.97 86.4152L 2284.97 122.422L 2292.17 122.422L 2292.17 147.626L 2299.38 147.626L 2299.38 133.223L 2322.81 133.223L 2322.81 115.22L 2434.53 115.22L 2434.53 138.624L 2457.96 138.624L 2466.97 133.223L 2477.78 122.422ZM 1654.26 82.8146L 1663.27 82.8146L 1663.27 117.021L 1656.06 117.021L 1654.26 117.021L 1654.26 82.8146Z"/>
<path id="path1_fill" d="M 8.59718e-14 376L 2494 376L 2494 210.637L 0 210.637L 8.59718e-14 376Z"/>
<path id="path2_fill" d="M 33.3659 350.28L 0 417L 33.3659 417C 33.7684 412.171 34.9735 405.944 37.4988 399.533C 43.6958 383.8 57.8425 366.96 87.5854 366.96C 107.892 366.96 120.832 375.541 128.745 386.175C 136.434 396.508 139.377 408.78 139.72 417L 145.976 417L 171 417L 137.634 350.28L 33.3659 350.28Z"/>
<path id="path3_fill" d="M 66.622 337.77L 37.5366 337.77L 25.0244 337.77L 25.0244 350.28L 33.3659 350.28L 137.634 350.28L 145.976 350.28L 145.976 337.77L 133.463 337.77L 104.268 337.77L 66.622 337.77Z"/>
<path id="path4_fill" d="M 58.3469 262.71L 37.5366 337.77L 66.622 337.77L 75.0732 275.22L 95.9268 275.22L 104.268 337.77L 133.463 337.77L 112.61 262.71L 58.3469 262.71Z"/>
<path id="path5_fill" d="M 108.442 250.2L 62.561 250.2L 50.0488 250.2L 50.0488 262.71L 58.3469 262.71L 112.61 262.71L 120.951 262.71L 120.951 250.2L 108.442 250.2Z"/>
<path id="path6_fill" d="M 95.9268 50.04L 75.0732 50.04L 62.561 250.2L 108.442 250.2L 95.9268 50.04Z"/>
<path id="path7_fill" d="M 95.9268 37.53L 75.0732 37.53L 75.0732 50.04L 95.9268 50.04L 95.9268 37.53Z"/>
<path id="path8_fill" d="M 85.5 29.19L 70.9024 29.19L 70.9024 37.53L 75.0732 37.53L 95.9268 37.53L 100.098 37.53L 100.098 29.19L 85.5 29.19Z"/>
<path id="path9_stroke" d="M 86 0L 86 -0.5L 85 -0.5L 85 0L 86 0ZM 70.9024 29.19L 70.9024 28.69L 70.4024 28.69L 70.4024 29.19L 70.9024 29.19ZM 70.9024 37.53L 70.4024 37.53L 70.4024 38.03L 70.9024 38.03L 70.9024 37.53ZM 100.098 37.53L 100.098 38.03L 100.598 38.03L 100.598 37.53L 100.098 37.53ZM 100.098 29.19L 100.598 29.19L 100.598 28.69L 100.098 28.69L 100.098 29.19ZM 50.0488 250.2L 50.0488 249.7L 49.5488 249.7L 49.5488 250.2L 50.0488 250.2ZM 50.0488 262.71L 49.5488 262.71L 49.5488 263.21L 50.0488 263.21L 50.0488 262.71ZM 120.951 262.71L 120.951 263.21L 121.451 263.21L 121.451 262.71L 120.951 262.71ZM 120.951 250.2L 121.451 250.2L 121.451 249.7L 120.951 249.7L 120.951 250.2ZM 75.0732 275.22L 75.0732 274.72L 74.6362 274.72L 74.5777 275.153L 75.0732 275.22ZM 95.9268 275.22L 96.4224 275.154L 96.3646 274.72L 95.9268 274.72L 95.9268 275.22ZM 25.0244 350.28L 24.5244 350.28L 24.5244 350.78L 25.0244 350.78L 25.0244 350.28ZM 25.0244 337.77L 25.0244 337.27L 24.5244 337.27L 24.5244 337.77L 25.0244 337.77ZM 145.976 337.77L 146.476 337.77L 146.476 337.27L 145.976 337.27L 145.976 337.77ZM 145.976 350.28L 145.976 350.78L 146.476 350.78L 146.476 350.28L 145.976 350.28ZM 0 417L -0.447198 416.776L -0.80908 417.5L 0 417.5L 0 417ZM 171 417L 171 417.5L 171.809 417.5L 171.447 416.776L 171 417ZM 139.72 417L 139.22 417.021L 139.24 417.5L 139.72 417.5L 139.72 417ZM 33.3659 417L 33.3659 417.5L 33.8259 417.5L 33.8641 417.042L 33.3659 417ZM 37.4988 399.533L 37.0336 399.349L 37.4988 399.533ZM 128.745 386.175L 129.147 385.877L 128.745 386.175ZM 85 0L 85 29.19L 86 29.19L 86 0L 85 0ZM 85.5 28.69L 70.9024 28.69L 70.9024 29.69L 85.5 29.69L 85.5 28.69ZM 70.4024 29.19L 70.4024 37.53L 71.4024 37.53L 71.4024 29.19L 70.4024 29.19ZM 100.598 37.53L 100.598 29.19L 99.5976 29.19L 99.5976 37.53L 100.598 37.53ZM 100.098 28.69L 85.5 28.69L 85.5 29.69L 100.098 29.69L 100.098 28.69ZM 70.9024 38.03L 75.0732 38.03L 75.0732 37.03L 70.9024 37.03L 70.9024 38.03ZM 75.0732 38.03L 95.9268 38.03L 95.9268 37.03L 75.0732 37.03L 75.0732 38.03ZM 95.9268 38.03L 100.098 38.03L 100.098 37.03L 95.9268 37.03L 95.9268 38.03ZM 95.4268 37.53L 95.4268 50.04L 96.4268 50.04L 96.4268 37.53L 95.4268 37.53ZM 95.9268 49.54L 75.0732 49.54L 75.0732 50.54L 95.9268 50.54L 95.9268 49.54ZM 75.5732 50.04L 75.5732 37.53L 74.5732 37.53L 74.5732 50.04L 75.5732 50.04ZM 74.5741 50.0088L 62.0619 250.169L 63.06 250.231L 75.5722 50.0712L 74.5741 50.0088ZM 62.561 250.7L 108.442 250.7L 108.442 249.7L 62.561 249.7L 62.561 250.7ZM 108.941 250.169L 96.4259 50.0088L 95.4278 50.0712L 107.943 250.231L 108.941 250.169ZM 62.561 249.7L 50.0488 249.7L 50.0488 250.7L 62.561 250.7L 62.561 249.7ZM 49.5488 250.2L 49.5488 262.71L 50.5488 262.71L 50.5488 250.2L 49.5488 250.2ZM 121.451 262.71L 121.451 250.2L 120.451 250.2L 120.451 262.71L 121.451 262.71ZM 120.951 249.7L 108.442 249.7L 108.442 250.7L 120.951 250.7L 120.951 249.7ZM 50.0488 263.21L 58.3469 263.21L 58.3469 262.21L 50.0488 262.21L 50.0488 263.21ZM 57.8651 262.576L 37.0548 337.636L 38.0184 337.904L 58.8287 262.844L 57.8651 262.576ZM 58.3469 263.21L 112.61 263.21L 112.61 262.21L 58.3469 262.21L 58.3469 263.21ZM 112.61 263.21L 120.951 263.21L 120.951 262.21L 112.61 262.21L 112.61 263.21ZM 133.945 337.636L 113.092 262.576L 112.128 262.844L 132.982 337.904L 133.945 337.636ZM 37.5366 338.27L 66.622 338.27L 66.622 337.27L 37.5366 337.27L 37.5366 338.27ZM 67.1175 337.837L 75.5687 275.287L 74.5777 275.153L 66.1265 337.703L 67.1175 337.837ZM 75.0732 275.72L 95.9268 275.72L 95.9268 274.72L 75.0732 274.72L 75.0732 275.72ZM 66.622 338.27L 104.268 338.27L 104.268 337.27L 66.622 337.27L 66.622 338.27ZM 104.268 338.27L 133.463 338.27L 133.463 337.27L 104.268 337.27L 104.268 338.27ZM 95.4312 275.286L 103.773 337.836L 104.764 337.704L 96.4224 275.154L 95.4312 275.286ZM 25.5244 350.28L 25.5244 337.77L 24.5244 337.77L 24.5244 350.28L 25.5244 350.28ZM 25.0244 338.27L 145.976 338.27L 145.976 337.27L 25.0244 337.27L 25.0244 338.27ZM 145.476 337.77L 145.476 350.28L 146.476 350.28L 146.476 337.77L 145.476 337.77ZM 33.3659 349.78L 25.0244 349.78L 25.0244 350.78L 33.3659 350.78L 33.3659 349.78ZM 0.447198 417.224L 33.8131 350.504L 32.9187 350.056L -0.447198 416.776L 0.447198 417.224ZM 145.976 349.78L 137.634 349.78L 137.634 350.78L 145.976 350.78L 145.976 349.78ZM 137.634 349.78L 33.3659 349.78L 33.3659 350.78L 137.634 350.78L 137.634 349.78ZM 137.187 350.504L 170.553 417.224L 171.447 416.776L 138.081 350.056L 137.187 350.504ZM 171 416.5L 145.976 416.5L 145.976 417.5L 171 417.5L 171 416.5ZM 145.976 416.5L 139.72 416.5L 139.72 417.5L 145.976 417.5L 145.976 416.5ZM 0 417.5L 33.3659 417.5L 33.3659 416.5L 0 416.5L 0 417.5ZM 33.8641 417.042C 34.2637 412.239 35.4536 406.083 37.964 399.716L 37.0336 399.349C 34.4934 405.804 33.273 412.102 32.8676 416.958L 33.8641 417.042ZM 37.964 399.716C 41.0438 391.891 46.0536 383.859 54.0173 377.743C 61.9518 371.639 72.8148 367.46 87.5854 367.46L 87.5854 366.46C 72.6131 366.46 61.5313 370.701 53.4075 376.95C 45.3129 383.187 40.1508 391.441 37.0336 399.349L 37.964 399.716ZM 87.5854 367.46C 107.728 367.46 120.522 375.961 128.344 386.474L 129.147 385.877C 121.143 375.121 108.057 366.46 87.5854 366.46L 87.5854 367.46ZM 128.344 386.474C 135.962 396.711 138.881 408.88 139.22 417.021L 140.219 416.979C 139.873 408.679 136.907 396.306 129.147 385.877L 128.344 386.474ZM 37.5366 337.27L 25.0244 337.27L 25.0244 338.27L 37.5366 338.27L 37.5366 337.27ZM 145.976 337.27L 133.463 337.27L 133.463 338.27L 145.976 338.27L 145.976 337.27Z"/>
<path id="path10_fill" d="M 0 0L 3 0L 3 30L 0 30L 0 0Z"/>
<path id="path11_fill" d="M 0 0L 2494 0L 2494 209L 0 209L 0 0Z"/>
</defs>
</svg>
